<svg xmlns="http://www.w3.org/2000/svg" width="16" height="16" version="1"><path fill="#363636" opacity="0.3" d="M7.193,0 C6.743,0 5.941,1.374 5.518,2.162 C5.917,2.075 6.33,2.021 6.754,2.006 C6.781,1.96 6.804,1.917 6.832,1.871 C6.945,1.686 7.05,1.553 7.16,1.396 C7.249,1.541 7.331,1.654 7.42,1.82 C7.456,1.888 7.487,1.954 7.521,2.021 A7 7 0 0 1 8.728,2.217 C8.373,1.441 7.652,0 7.193,0 Z M2.203,1.041 C2.161,1.04 2.125,1.046 2.1,1.061 C1.748,1.261 1.89,4.076 1.899,4.234 C2.194,3.917 2.519,3.625 2.869,3.365 C2.864,3.206 2.862,3.017 2.863,2.756 C2.864,2.63 2.875,2.541 2.879,2.42 C3.028,2.503 3.15,2.559 3.305,2.652 C3.423,2.723 3.535,2.794 3.649,2.865 C3.996,2.673 4.361,2.508 4.742,2.377 C4.008,1.896 2.659,1.052 2.203,1.041 Z M12.514,2.004 C11.91,2.021 10.521,2.326 9.665,2.527 A7 7 0 0 1 11,3.256 C11.256,3.204 11.486,3.165 11.723,3.123 C11.702,3.208 11.698,3.263 11.674,3.35 C11.642,3.469 11.607,3.584 11.573,3.699 A7 7 0 0 1 12.368,4.51 C12.627,3.719 13.071,2.224 12.776,2.037 C12.734,2.01 12.642,2 12.514,2.004 Z M13.04,4.98 C12.928,4.981 12.832,4.983 12.735,4.984 A7 7 0 0 1 13.317,5.984 C13.379,5.985 13.439,5.984 13.502,5.986 C13.569,5.988 13.609,5.997 13.674,6 C13.611,6.127 13.549,6.25 13.487,6.375 A7 7 0 0 1 13.883,7.738 C14.377,6.866 15.099,5.534 15.001,5.301 C14.886,5.03 13.822,4.98 13.04,4.981 Z M14.001,9.012 A6.966 6.966 0 0 1 13.399,11.801 C13.77,11.527 14.982,10.622 15.038,10.303 C15.08,10.062 14.479,9.457 14.001,9.012 Z M0.071,9.904 A7 7 0 0 0 2.672,14.48 C2.341,13.576 2.152,12.597 2.11,12.359 C2.075,12.307 2.041,12.255 2.008,12.201 C1.756,12.053 1.529,11.904 1.348,11.758 C1.348,11.758 0.485,11.322 0.153,10.24 C0.13,10.163 0.102,10.093 0.084,10.01 C0.079,9.975 0.076,9.939 0.071,9.904 Z M13.497,12.016 C13.837,12.528 14.212,13.113 14.555,13.682 C14.766,13.291 15.121,12.584 14.975,12.334 C14.824,12.076 13.925,12.029 13.497,12.016 Z M10.768,14 C10.608,14.405 10.405,14.853 10.172,15.225 A6.964 6.964 0 0 0 10.885,14.818 C12.769,15.435 15.208,16.158 15.577,15.967 C14.542,15.629 12.149,14.979 11.098,14 L10.768,14 Z M14.76,14.029 C15.247,14.861 15.62,15.596 15.629,15.891 C15.643,15.805 15.594,15.661 15.516,15.465 C15.677,15.214 16.113,14.473 15.973,14.23 C15.857,14.032 15.176,14.023 14.76,14.029 Z M5.323,14.758 C5.08,15.033 4.85,15.331 4.62,15.568 A7 7 0 0 0 7.001,16 A6.964 6.964 0 0 0 8.629,15.789 C8.34,15.584 8.089,15.26 7.836,14.941 C7.56,14.98 7.282,15 7,15 C6.414,15 5.852,14.915 5.323,14.758 Z" /><path fill="#363636" d="M7,2 C3.394,2 0.506,4.755 0.068,8.08 A5.157 5.157 0 0 0 0,9 C0.004,9.364 0.033,9.69 0.084,10.01 C0.102,10.093 0.129,10.163 0.152,10.24 C0.484,11.322 1.348,11.758 1.348,11.758 C1.557,11.927 1.818,12.099 2.119,12.27 L2.094,12.27 C2.094,12.27 2.726,16.028 3.883,16 C4.758,15.978 5.442,13.965 6.555,14 C7.666,14.035 8.117,15.988 9.223,16 C9.861,16.007 10.417,14.891 10.768,14 L11.098,14 C12.149,14.979 14.541,15.629 15.576,15.967 C15.59,15.959 15.609,16 15.609,16 C15.841,15.703 14.394,13.353 13.383,11.844 A6.966 6.966 0 0 0 14,9 A7 7 0 0 0 7,2 Z M7,3 C10.325,3 13,5.675 13,9 C12.997,9.839 12.816,10.667 12.471,11.432 A1 1 0 0 0 12.553,12.4 C12.934,12.97 13.354,13.658 13.74,14.303 C13.725,14.297 13.714,14.295 13.699,14.289 C12.891,13.981 12.109,13.574 11.779,13.267 A1 1 0 0 0 11.098,13 L10.768,13 A1 1 0 0 0 9.838,13.633 C9.676,14.043 9.463,14.497 9.273,14.777 C9.226,14.847 9.184,14.896 9.15,14.93 L9.148,14.93 C9.039,14.835 8.87,14.635 8.676,14.389 C8.481,14.142 8.26,13.85 7.941,13.572 C7.623,13.294 7.154,13.018 6.586,13 C6.003,12.982 5.517,13.238 5.174,13.508 C4.831,13.777 4.582,14.076 4.363,14.338 C4.186,14.549 4.051,14.702 3.932,14.828 C3.795,14.599 3.634,14.235 3.506,13.838 C3.238,13.01 3.097,12.181 3.09,12.142 A1 1 0 0 0 2.613,11.4 C2.347,11.249 2.127,11.102 1.977,10.98 A1 1 0 0 0 1.799,10.865 C1.799,10.865 1.319,10.636 1.107,9.947 C1.081,9.858 1.074,9.84 1.07,9.83 C1.029,9.563 1.003,9.297 1,8.988 A1 1 0 0 0 1,8.986 A1 1 0 0 0 1,8.984 C0.996,8.736 1.014,8.487 1.055,8.242 A1 1 0 0 0 1.059,8.211 C1.187,7.233 1.572,6.312 2.141,5.521 A1 1 0 0 0 2,6 L2,7 A1 1 0 0 0 3,8 L4,8 A1 1 0 0 0 5,7 L5,6 A1 1 0 0 0 4,5 L3,5 A1 1 0 0 0 2.326,5.271 C3.415,3.91 5.087,3 7,3 Z M3,6 L4,6 L4,7 L3,7 L3,6 Z" /></svg>
