<svg xmlns="http://www.w3.org/2000/svg" width="16px" height="16px" version="1.1" viewBox="0 0 16 16"><path fill="#363636" d="M4.5,14 L11.5,14 C11.777,14 12,14.223 12,14.5 C12,14.777 11.777,15 11.5,15 L4.5,15 C4.223,15 4,14.777 4,14.5 C4,14.223 4.223,14 4.5,14 Z" /><path fill="#363636" d="M2,2 C0.892,2 0,2.892 0,4 L0,11 C0,12.108 0.892,13 2,13 L12.879,13 L11.881,12 L2,12 C1.446,12 1,11.554 1,11 L1,4 C1,3.446 1.446,3 2,3 L9.422,3 L14,3 C14.554,3 15,3.446 15,4 L15,10.879 L15.859,11.738 C15.95,11.51 16,11.261 16,11 L16,4 C16,2.892 15.108,2 14,2 L2,2 Z" /><path fill="#363636" d="M9.25,4.01 A3.5 3.5 0 0 0 7.025,5.025 A3.5 3.5 0 0 0 7.025,9.975 A3.5 3.5 0 0 0 11.596,10.303 L11.598,10.303 L14.803,13.51 C14.999,13.706 15.314,13.706 15.51,13.51 C15.706,13.314 15.706,12.999 15.51,12.803 L12.303,9.596 A3.5 3.5 0 0 0 11.975,5.025 A3.5 3.5 0 0 0 9.25,4.01 Z M9.281,5.01 A2.5 2.5 0 0 1 11.268,5.732 A2.5 2.5 0 0 1 11.268,9.268 A2.5 2.5 0 0 1 7.732,9.268 A2.5 2.5 0 0 1 7.732,5.732 A2.5 2.5 0 0 1 9.281,5.01 Z" /></svg>
