<!-- Sonata: record a selected portion (screenshot toolbar, macOS style) -->
<svg xmlns="http://www.w3.org/2000/svg" width="16" height="16" viewBox="0 0 16 16"><defs><mask id="m"><rect width="16" height="16" fill="#fff"/><circle cx="12" cy="11.5" r="4.3" fill="#000"/></mask></defs><g mask="url(#m)"><rect x="1" y="3" width="2.5" height="1.2"/><rect x="5" y="3" width="2.5" height="1.2"/><rect x="9" y="3" width="2.5" height="1.2"/><rect x="13" y="3" width="2" height="1.2"/><rect x="1" y="11.8" width="2.5" height="1.2"/><rect x="5" y="11.8" width="2.5" height="1.2"/><rect x="9" y="11.8" width="2.5" height="1.2"/><rect x="13" y="11.8" width="2" height="1.2"/><rect x="1" y="4.2" width="1.2" height="2.3"/><rect x="1" y="8" width="1.2" height="2.3"/><rect x="13.8" y="4.2" width="1.2" height="2.3"/><rect x="13.8" y="8" width="1.2" height="2.3"/></g><path fill-rule="evenodd" d="M12,8 a3.5,3.5 0 1 1 0,7 a3.5,3.5 0 1 1 0,-7 Z M12,9.1 a2.4,2.4 0 1 0 0,4.8 a2.4,2.4 0 1 0 0,-4.8 Z"/><circle cx="12" cy="11.5" r="1.5"/></svg>
