<svg xmlns="http://www.w3.org/2000/svg" width="16" height="16"><path fill="#363636" d="M12.02,2.271 C7.413,3.532 3.443,6.714 2.262,12.021 A1.5 1.5 0 0 1 2.5,12 A1.5 1.5 0 0 1 3.252,12.203 C4.346,7.305 7.928,4.447 12.215,3.27 A1.5 1.5 0 0 1 12,2.5 A1.5 1.5 0 0 1 12.02,2.271 Z" /><path fill="#363636" d="M13.5,1 A1.5 1.5 0 0 0 12,2.5 A1.5 1.5 0 0 0 13.5,4 A1.5 1.5 0 0 0 15,2.5 A1.5 1.5 0 0 0 13.5,1 Z M13.5,2 A0.5 0.5 0 0 1 14,2.5 A0.5 0.5 0 0 1 13.5,3 A0.5 0.5 0 0 1 13,2.5 A0.5 0.5 0 0 1 13.5,2 Z" /><path fill="#363636" d="M2.5,12 A1.5 1.5 0 0 0 1,13.5 A1.5 1.5 0 0 0 2.5,15 A1.5 1.5 0 0 0 4,13.5 A1.5 1.5 0 0 0 2.5,12 Z M2.5,13 A0.5 0.5 0 0 1 3,13.5 A0.5 0.5 0 0 1 2.5,14 A0.5 0.5 0 0 1 2,13.5 A0.5 0.5 0 0 1 2.5,13 Z" /><path fill="#363636" d="M2.983,4.209 C1.739,6.079 1.706,8.416 3.227,9.824 C4.707,10.631 6.182,10.473 8.003,8.837 C4.755,9.264 3.013,7.734 2.983,4.209 Z M8.923,1.112 C7.413,2.026 6.625,3.617 7.262,5.031 C8.066,6.02 9.183,6.346 11.034,5.763 C8.548,5.097 7.791,3.536 8.924,1.113 Z" /><path fill="#363636" d="M10.172,9.172 L13,12 L12.293,12.707 L9.465,9.879 Z" /><path fill="#363636" d="M10.172,14.829 L13,12 L12.293,11.293 L9.465,14.122 Z" /><path fill="#363636" d="M14,9 L15,9 L15,15 L14,15 Z" /></svg>
