<svg xmlns="http://www.w3.org/2000/svg" width="16" height="16" viewBox="0 0 16 16"><path fill="#000" d="M15,8 Q15,10.899 12.95,12.95 Q10.899,15 8,15 Q5.101,15 3.05,12.95 Q1,10.899 1,8 Q1,5.101 3.05,3.05 Q5.101,1 8,1 Q10.899,1 12.95,3.05 Q15,5.101 15,8 Z M13.6,8 Q13.6,5.68 11.96,4.04 Q10.32,2.4 8,2.4 Q5.68,2.4 4.04,4.04 Q2.4,5.68 2.4,8 Q2.4,10.32 4.04,11.96 Q5.68,13.6 8,13.6 Q10.32,13.6 11.96,11.96 Q13.6,10.32 13.6,8 Z" /><path fill="#000" d="M6.4,5.6 L9.6,5.6 A0.8 0.8 0 0 1 10.4,6.4 L10.4,9.6 A0.8 0.8 0 0 1 9.6,10.4 L6.4,10.4 A0.8 0.8 0 0 1 5.6,9.6 L5.6,6.4 A0.8 0.8 0 0 1 6.4,5.6 Z" /></svg>
